<?xml version="1.0" standalone="no"?>
<!DOCTYPE svg PUBLIC "-//W3C//DTD SVG 20010904//EN"
 "http://www.w3.org/TR/2001/REC-SVG-20010904/DTD/svg10.dtd">
<svg version="1.0" xmlns="http://www.w3.org/2000/svg"
 width="1400.000000pt" height="570.000000pt" viewBox="0 0 1400.000000 570.000000"
 preserveAspectRatio="xMidYMid meet">
<metadata>
Created by potrace 1.16, written by Peter Selinger 2001-2019
</metadata>
<g transform="translate(0.000000,570.000000) scale(0.100000,-0.100000)"
fill="#000000" stroke="none">
<path d="M2263 5687 c2 -7 23 -15 46 -18 24 -3 46 -11 51 -18 4 -7 28 -16 54
-18 26 -3 44 -8 42 -11 -11 -10 22 -31 41 -26 28 8 113 -23 134 -47 10 -12 22
-18 27 -15 12 7 74 -11 97 -29 19 -14 18 -15 -15 -10 -57 8 -133 29 -165 47
-17 9 -63 20 -103 23 -40 4 -72 12 -72 16 0 5 -15 9 -32 9 l-33 -1 27 -15 c15
-8 101 -39 190 -69 90 -30 201 -68 248 -85 73 -27 94 -30 147 -25 34 3 64 1
67 -4 3 -5 36 -14 73 -21 38 -6 113 -27 168 -46 55 -19 109 -34 120 -34 23 0
73 -35 64 -45 -4 -3 -18 -1 -33 5 -15 5 -38 10 -51 10 -14 0 -44 6 -67 14 -98
32 -268 76 -292 76 -10 0 -36 -18 -58 -40 -23 -22 -45 -40 -50 -40 -4 0 -8 -7
-8 -15 0 -9 9 -15 23 -15 13 0 26 -3 30 -6 3 -3 70 -27 149 -54 95 -31 144
-52 146 -63 2 -8 9 -18 17 -21 14 -5 117 42 123 57 2 4 21 16 42 27 21 10 40
26 43 35 4 9 19 15 36 15 41 0 32 -22 -23 -54 -23 -14 -65 -44 -92 -68 -27
-24 -68 -56 -91 -71 -50 -32 -59 -61 -15 -51 15 4 57 22 93 42 l67 35 129 -42
c71 -22 134 -41 141 -41 6 0 26 -7 44 -14 18 -8 113 -40 212 -71 133 -42 184
-63 202 -82 13 -14 21 -30 18 -35 -11 -17 0 -855 11 -866 2 -3 15 2 27 10 13
8 44 23 71 33 54 20 63 45 17 45 -19 0 -30 -5 -30 -14 0 -13 -41 -46 -57 -46
-4 0 -8 33 -9 72 0 40 -4 136 -9 213 -8 142 -1 240 16 230 5 -4 10 23 11 62
l1 68 7 -55 c6 -53 7 -53 8 -12 l2 42 44 0 c29 0 46 -5 49 -15 4 -8 2 -17 -3
-20 -16 -10 -12 -55 4 -55 24 0 29 -18 27 -104 0 -63 4 -89 19 -116 18 -32 19
-33 20 -10 0 18 3 21 12 12 9 -9 8 -18 -2 -37 -10 -18 -11 -28 -3 -33 12 -8 9
-40 -6 -55 -17 -17 -13 -37 8 -37 10 0 22 -7 25 -16 9 -23 8 -24 -12 -24 -23
0 -57 -35 -43 -44 10 -7 43 6 146 54 33 16 72 32 87 35 15 4 32 13 39 21 6 8
17 14 24 14 13 0 113 38 255 97 123 51 124 52 109 69 -7 8 -19 12 -27 9 -8 -3
-16 3 -19 15 -3 11 -10 20 -15 20 -6 0 -7 11 -4 24 7 30 -12 76 -31 76 -7 0
-21 16 -30 35 -9 19 -20 35 -25 35 -4 0 -8 9 -8 20 0 11 -4 20 -10 20 -18 0
-11 28 8 34 10 4 79 -12 152 -35 95 -29 136 -37 143 -30 17 17 27 13 38 -16 7
-21 26 -35 76 -58 38 -17 68 -37 71 -47 3 -13 14 -18 37 -18 18 0 64 -16 101
-35 38 -19 79 -35 92 -35 37 0 25 -28 -28 -66 -53 -38 -77 -69 -61 -78 11 -7
47 5 130 47 63 31 63 31 80 12 41 -51 72 -65 137 -65 55 0 73 -5 138 -40 86
-46 102 -49 117 -16 10 21 17 23 64 22 49 -1 52 -2 43 -21 -5 -11 -24 -31 -43
-44 -37 -25 -56 -68 -58 -133 -2 -47 -17 -59 -32 -26 -15 34 -44 33 -152 -5
-54 -19 -138 -47 -188 -62 -49 -14 -128 -39 -175 -55 -47 -15 -107 -35 -135
-43 -27 -9 -111 -37 -185 -63 -74 -26 -164 -57 -200 -69 -36 -12 -85 -32 -109
-44 -59 -28 -64 -27 -84 14 -18 39 -42 54 -59 37 -16 -16 12 -70 40 -77 12 -3
20 -10 17 -15 -3 -5 -45 -28 -93 -52 -48 -24 -93 -51 -100 -60 -18 -24 -35
-23 -70 7 -30 26 -88 37 -64 13 23 -23 11 -28 -72 -28 -62 0 -95 5 -127 20
-24 11 -57 20 -72 20 -15 0 -38 6 -50 14 -37 24 -128 30 -171 12 -22 -9 -67
-16 -102 -16 -35 0 -64 -4 -64 -9 0 -4 53 -16 118 -25 64 -10 137 -22 162 -28
25 -5 144 -12 265 -14 121 -2 231 -8 245 -14 45 -18 545 -36 802 -30 75 2 91
0 125 -21 46 -28 56 -41 40 -52 -8 -6 -5 -7 7 -3 10 4 25 1 32 -5 15 -12 64
-4 64 11 0 5 -16 12 -35 16 -19 3 -38 10 -41 15 -3 5 -14 9 -25 9 -15 0 -20 6
-17 23 3 20 10 23 83 29 258 24 451 61 650 124 94 30 178 54 187 54 10 0 23 9
30 19 9 14 19 18 39 14 16 -3 46 3 74 16 59 26 71 26 164 0 69 -20 91 -21 236
-15 88 3 228 17 311 29 85 13 161 20 172 16 11 -4 60 -11 109 -14 86 -6 236
-22 436 -46 62 -8 102 -18 110 -27 13 -17 15 -139 3 -213 -5 -25 -16 -55 -25
-68 -16 -21 -20 -21 -62 -10 -54 15 -87 8 -129 -27 -45 -38 -90 -134 -62 -134
9 0 90 28 117 39 11 5 37 12 57 15 56 7 93 28 96 54 3 20 8 23 39 20 46 -4 66
21 40 50 -24 26 -21 40 8 54 14 6 37 33 52 60 22 40 37 53 90 79 34 17 63 34
63 39 0 21 35 20 51 -2 16 -20 20 -21 46 -9 51 24 129 22 221 -5 47 -13 88
-27 91 -29 2 -3 43 16 90 41 85 46 86 46 133 34 37 -9 56 -9 83 0 19 6 33 16
30 21 -4 5 1 9 9 9 28 0 17 31 -14 43 -16 6 -30 16 -31 22 0 5 -2 21 -4 35 -1
14 0 30 4 37 11 20 126 107 195 148 36 21 66 44 66 50 0 8 -24 14 -64 17 -39
4 -86 16 -122 33 -33 15 -88 41 -124 57 -36 16 -85 40 -110 53 -25 12 -62 28
-82 35 -80 25 -89 83 -24 146 38 36 62 48 148 74 57 18 135 42 173 55 272 88
264 87 321 79 56 -7 64 -16 44 -55 -9 -16 -7 -19 11 -19 19 0 20 4 14 49 -7
55 5 73 34 47 10 -9 34 -16 55 -16 38 0 44 5 113 82 13 15 43 31 70 37 58 15
300 110 363 143 25 13 76 37 114 53 84 35 274 168 337 236 25 27 54 65 65 84
24 44 13 56 -72 79 -75 20 -121 20 -365 1 -352 -29 -669 -85 -1014 -180 -201
-56 -612 -181 -774 -235 -47 -15 -133 -43 -191 -60 -58 -17 -116 -36 -130 -42
-14 -5 -133 -32 -265 -59 -372 -78 -351 -74 -391 -60 -26 10 -39 10 -47 2 -13
-13 -50 -14 -62 -2 -12 11 -56 23 -215 56 -63 14 -125 27 -136 31 -19 5 -24
-1 -40 -43 -20 -54 -52 -97 -97 -130 -25 -18 -44 -23 -96 -23 -109 0 -154 21
-252 123 -57 58 -88 84 -92 75 -3 -8 -24 -20 -46 -27 -47 -14 -58 -30 -41 -61
9 -17 19 -20 56 -18 43 3 46 1 59 -29 14 -33 14 -33 -13 -33 -16 0 -33 -5 -39
-11 -8 -8 -21 -7 -47 2 -35 13 -37 12 -69 -20 -19 -20 -45 -35 -62 -37 -16 -2
-41 -12 -56 -24 -16 -11 -41 -20 -57 -20 -16 0 -35 -7 -42 -15 -7 -8 -20 -15
-30 -15 -9 0 -29 -9 -44 -21 -14 -11 -36 -21 -49 -23 -13 -1 -27 -5 -32 -8 -6
-3 -38 -9 -71 -13 -54 -6 -66 -4 -96 16 -18 12 -53 48 -76 81 l-43 59 16 45
c8 24 15 50 15 57 0 30 142 143 306 242 60 36 116 73 124 81 13 13 11 14 -16
8 -25 -5 -37 0 -65 25 -42 38 -69 41 -69 6 0 -28 -12 -31 -69 -15 -20 5 -108
25 -196 45 -88 19 -187 42 -220 50 -33 8 -109 25 -170 39 -335 75 -407 91
-585 133 -107 25 -276 65 -375 88 -99 24 -259 62 -355 85 -195 46 -1034 252
-1120 275 -98 26 -252 63 -395 95 -77 17 -153 38 -170 45 -38 18 -158 19 -152
2z m587 -217 c0 -5 -7 -7 -15 -4 -8 4 -12 10 -9 15 6 11 24 2 24 -11z m823
-262 c12 -6 47 -18 77 -25 55 -14 67 -18 170 -49 30 -9 85 -24 121 -34 36 -9
74 -22 85 -28 37 -21 -13 -26 -74 -7 -31 9 -70 21 -87 25 -16 5 -52 15 -80 24
-27 9 -57 16 -64 16 -21 0 -173 48 -191 60 -13 9 -13 11 0 20 19 12 17 12 43
-2z m907 -269 l25 -21 -27 6 c-37 8 -78 24 -78 31 0 14 58 2 80 -16z m385 -88
c3 -6 26 -13 50 -17 25 -3 48 -10 51 -15 3 -5 14 -9 25 -9 10 0 83 -21 162
-46 78 -25 158 -50 177 -55 54 -16 144 -62 148 -76 6 -21 -25 -15 -96 18 -87
41 -129 56 -237 84 -296 78 -351 96 -340 116 8 12 52 12 60 0z m-620 -107 c86
-27 119 -34 153 -29 31 5 42 3 42 -7 0 -19 -116 -132 -128 -124 -15 9 -11 76
5 76 7 0 13 7 13 15 0 10 -9 14 -27 13 -39 -2 -46 -8 -32 -24 9 -11 9 -18 1
-26 -9 -9 -12 -7 -12 9 0 23 -22 36 -45 26 -9 -3 -23 1 -33 9 -9 8 -25 18 -34
21 -10 4 -18 13 -18 22 0 8 -7 15 -15 15 -8 0 -15 9 -15 20 0 28 17 26 145
-16z m4665 0 c0 -8 -4 -12 -10 -9 -5 3 -10 10 -10 16 0 5 5 9 10 9 6 0 10 -7
10 -16z m-4800 -51 c0 -19 -3 -24 -10 -17 -6 6 -8 18 -4 27 9 24 14 21 14 -10z
m140 -80 c0 -7 -7 -13 -15 -13 -8 0 -15 -4 -15 -10 0 -5 -13 -10 -30 -10 -35
0 -39 14 -9 30 11 7 18 14 15 17 -3 3 2 12 11 18 14 11 20 10 30 -4 7 -9 13
-22 13 -28z m5325 13 c12 -18 13 -29 6 -43 -5 -10 -12 -26 -15 -36 -4 -12 -14
-17 -28 -15 -20 3 -23 8 -21 41 3 41 18 77 33 77 5 0 17 -11 25 -24z m-4955
-11 c0 -19 -17 -19 -50 0 l-25 14 38 1 c26 0 37 -4 37 -15z m102 -37 c-9 -9
-15 -9 -24 0 -9 9 -7 12 12 12 19 0 21 -3 12 -12z m5004 -2 c32 4 35 3 16 -5
-12 -6 -27 -22 -32 -35 -11 -29 -45 -50 -67 -42 -12 5 -14 15 -8 44 9 49 13
54 34 42 10 -5 36 -7 57 -4z m-5296 -9 c0 -20 -22 -37 -49 -37 l-24 0 29 25
c33 28 44 31 44 12z m350 -79 c0 -6 -6 -5 -15 2 -8 7 -15 14 -15 16 0 2 7 1
15 -2 8 -4 15 -11 15 -16z m2040 -127 c0 -5 -24 -24 -52 -42 l-53 -32 41 -14
c46 -15 87 -49 81 -66 -2 -7 -20 -13 -39 -15 -20 -2 -44 -12 -53 -23 -38 -41
-91 -3 -65 47 17 30 6 54 -23 54 -12 0 -56 -11 -97 -25 -41 -14 -100 -30 -130
-35 -30 -5 -68 -12 -84 -16 -21 -5 -27 -4 -22 5 4 6 18 11 31 11 12 0 25 7 29
15 3 9 18 15 37 15 17 0 43 6 57 14 25 13 107 40 252 81 30 8 62 20 70 25 19
12 20 12 20 1z m74 -177 c36 -14 6 -64 -38 -64 -19 0 -22 40 -4 58 14 14 20
14 42 6z m1676 -177 c0 -13 -35 -47 -48 -47 -5 0 -23 -11 -42 -25 -34 -25 -90
-34 -90 -15 0 6 7 10 15 10 8 0 15 4 15 9 0 5 25 21 56 37 30 15 57 32 60 36
8 13 34 9 34 -5z m-2360 -53 c22 -15 40 -30 40 -35 0 -4 -17 -11 -37 -15 -21
-4 -53 -15 -71 -26 -51 -28 -68 -23 -63 18 2 17 65 84 79 84 7 0 30 -12 52
-26z m2270 -80 c0 -9 -7 -14 -17 -12 -25 5 -28 28 -4 28 12 0 21 -6 21 -16z
m104 -29 c-4 -8 -10 -15 -15 -15 -5 0 -9 7 -9 15 0 8 7 15 15 15 9 0 12 -6 9
-15z m-2580 -41 c3 -9 6 -23 6 -31 0 -14 -3 -14 -20 2 -11 10 -20 24 -20 32 0
18 27 16 34 -3z m2064 -6 c2 -12 -3 -18 -16 -18 -22 0 -46 23 -35 34 13 13 48
1 51 -16z m107 -18 c-3 -5 -13 -10 -21 -10 -8 0 -14 5 -14 10 0 6 9 10 21 10
11 0 17 -4 14 -10z m-2339 -36 c4 -14 1 -37 -5 -51 -11 -24 -13 -25 -25 -8
-10 14 -15 15 -21 5 -4 -7 -2 -16 5 -20 21 -13 7 -45 -22 -48 -47 -6 -46 51 3
119 26 37 56 38 65 3z m3104 -14 c0 -13 -13 -28 -35 -41 -19 -12 -35 -25 -35
-30 0 -5 -11 -14 -25 -21 -19 -8 -28 -8 -40 2 -23 19 -18 44 14 79 24 26 36
31 75 31 40 0 46 -3 46 -20z m-260 -20 c0 -5 -2 -10 -4 -10 -3 0 -8 5 -11 10
-3 6 -1 10 4 10 6 0 11 -4 11 -10z"/>
<path d="M2248 5613 c6 -2 18 -2 25 0 6 3 1 5 -13 5 -14 0 -19 -2 -12 -5z"/>
<path d="M4327 5340 c-26 -9 -49 -21 -50 -26 -1 -5 32 -17 73 -26 41 -10 87
-22 102 -27 34 -11 46 3 25 27 -8 9 -17 28 -19 41 -3 21 -9 25 -43 26 -22 1
-62 -6 -88 -15z"/>
<path d="M6750 4897 c-46 -15 -113 -85 -128 -135 -30 -98 -3 -188 78 -263 70
-64 138 -83 194 -54 15 8 37 15 47 15 33 0 87 58 105 113 40 118 16 210 -74
276 -78 58 -144 73 -222 48z"/>
<path d="M7500 4595 c0 -8 2 -15 4 -15 2 0 11 -3 20 -6 12 -4 16 0 16 15 0 14
-6 21 -20 21 -11 0 -20 -7 -20 -15z"/>
<path d="M6232 4527 c-16 -19 8 -116 30 -123 42 -13 47 12 18 79 -23 53 -34
62 -48 44z"/>
<path d="M4270 4360 c0 -11 5 -20 10 -20 6 0 10 9 10 20 0 11 -4 20 -10 20 -5
0 -10 -9 -10 -20z"/>
<path d="M9676 4351 c-10 -16 6 -42 23 -39 9 2 17 13 19 26 3 16 -2 22 -17 22
-11 0 -22 -4 -25 -9z"/>
<path d="M4266 4321 c-4 -5 -5 -24 -4 -41 l2 -32 19 23 c19 24 19 50 0 56 -6
2 -14 0 -17 -6z"/>
<path d="M4210 4251 c0 -41 3 -72 6 -69 10 11 13 113 4 128 -7 10 -10 -8 -10
-59z"/>
<path d="M9603 4294 c-3 -8 -1 -20 5 -26 16 -16 42 -2 42 22 0 24 -38 28 -47
4z"/>
<path d="M9588 4204 c-46 -29 -48 -44 -8 -44 26 0 30 -4 30 -26 0 -15 -10 -42
-21 -61 -19 -30 -25 -33 -50 -28 -35 8 -40 -12 -10 -39 21 -19 43 -22 87 -12
26 6 34 3 48 -19 13 -19 25 -25 54 -25 45 0 77 26 99 78 36 87 -25 157 -112
128 -17 -6 -25 0 -43 33 -13 23 -26 41 -30 40 -4 0 -24 -11 -44 -25z"/>
<path d="M2643 4103 c9 -2 25 -2 35 0 9 3 1 5 -18 5 -19 0 -27 -2 -17 -5z"/>
<path d="M2700 4086 c0 -18 22 -26 68 -26 28 0 33 -3 22 -10 -11 -7 -12 -10
-2 -10 7 0 20 -7 28 -15 9 -8 25 -15 36 -15 11 0 32 -8 46 -19 15 -10 43 -22
62 -26 19 -4 41 -12 48 -17 17 -15 15 -31 -4 -24 -8 3 -12 2 -9 -3 3 -5 22
-15 43 -21 20 -6 46 -15 57 -19 37 -15 90 -33 120 -41 17 -5 104 -32 195 -60
213 -67 406 -121 450 -127 211 -28 254 -34 270 -43 47 -25 91 5 153 107 46 76
47 91 4 84 -5 -1 -25 3 -45 9 -100 27 -334 78 -512 110 -30 5 -100 18 -155 29
-55 11 -129 25 -165 31 -36 5 -83 14 -105 20 -22 5 -92 16 -155 25 -63 9 -137
20 -165 26 -27 5 -96 18 -152 29 -120 24 -133 24 -133 6z m705 -237 c5 -5 -1
-9 -17 -9 -15 0 -30 5 -33 10 -3 6 -15 10 -26 10 -11 0 -18 4 -15 9 7 10 75
-5 91 -20z m80 -29 c4 -6 -8 -10 -29 -10 -20 0 -36 5 -36 10 0 6 13 10 29 10
17 0 33 -4 36 -10z m175 -56 c0 -2 -16 -4 -36 -4 -19 0 -33 4 -30 8 5 8 66 4
66 -4z"/>
<path d="M4248 4013 c6 -2 18 -2 25 0 6 3 1 5 -13 5 -14 0 -19 -2 -12 -5z"/>
<path d="M9990 3960 c-19 -3 -50 -14 -68 -24 -41 -21 -94 -102 -90 -136 3 -23
9 -26 63 -32 198 -22 209 -22 279 2 37 12 70 28 73 36 2 7 -9 33 -26 58 -47
68 -151 112 -231 96z"/>
<path d="M9542 3881 c27 -22 72 -28 83 -12 8 14 -7 20 -62 27 l-48 7 27 -22z"/>
<path d="M9756 3764 c-8 -31 -3 -39 19 -31 19 8 20 57 1 57 -8 0 -17 -12 -20
-26z"/>
<path d="M10075 3705 c-44 -13 -132 -42 -195 -63 -63 -22 -203 -68 -310 -102
-169 -54 -840 -274 -1235 -405 -71 -24 -177 -58 -235 -75 -123 -38 -349 -111
-575 -185 -88 -29 -225 -74 -305 -99 -80 -26 -192 -62 -250 -80 -58 -19 -145
-46 -195 -61 -49 -14 -97 -29 -104 -34 -19 -10 -27 -38 -51 -186 -21 -126 -28
-417 -11 -444 7 -11 23 -11 92 -2 166 23 616 83 689 91 41 5 143 18 225 29
361 49 554 74 920 121 215 27 419 53 455 58 120 17 318 -7 525 -65 147 -41
485 -182 485 -203 0 -6 11 -10 24 -10 13 0 69 -23 125 -50 56 -27 103 -50 105
-50 3 0 40 -16 83 -36 43 -20 123 -56 178 -82 55 -25 105 -50 112 -56 12 -11
18 -92 28 -411 6 -164 -5 -586 -21 -858 -7 -104 -8 -109 -28 -104 -125 29
-474 90 -516 90 -61 0 -244 28 -257 39 -19 15 -43 104 -43 156 0 61 -36 230
-66 310 -54 144 -146 268 -234 316 -151 82 -293 -12 -351 -231 -19 -70 -20
-96 -14 -262 l6 -184 -43 7 c-24 3 -70 10 -103 15 -33 5 -109 17 -170 26 -60
9 -144 23 -185 31 -41 9 -145 26 -230 39 -85 12 -272 41 -415 64 -143 22 -296
45 -340 52 -44 6 -109 17 -145 24 -36 8 -87 17 -113 21 -26 3 -54 13 -62 20
-15 15 -24 74 -30 179 -4 93 -14 142 -31 156 -8 7 -24 34 -36 61 -24 55 -69
98 -103 98 -33 0 -62 -41 -75 -106 -6 -30 -18 -61 -27 -70 -13 -13 -14 -22 -4
-53 6 -21 11 -63 11 -92 0 -30 5 -72 10 -94 11 -46 -2 -92 -29 -99 -9 -2 -43
-10 -76 -17 -112 -23 -118 -60 -18 -99 111 -42 129 -48 218 -73 159 -44 592
-139 875 -192 80 -14 182 -35 227 -46 97 -23 394 -125 402 -138 3 -5 24 -14
46 -20 23 -6 75 -29 118 -50 42 -22 130 -59 194 -82 65 -23 134 -47 153 -55
19 -7 43 -13 53 -14 10 0 30 -6 45 -14 15 -8 70 -19 122 -25 52 -7 97 -16 98
-21 2 -6 88 -10 210 -10 198 0 208 1 220 20 7 12 17 18 21 15 5 -3 69 -7 143
-10 130 -5 217 1 443 30 61 8 142 17 180 20 39 3 133 15 210 26 77 11 244 24
370 29 225 9 407 33 565 73 30 8 86 20 123 26 38 7 76 16 85 20 10 5 42 16 73
25 138 40 82 72 -184 106 -278 35 -312 40 -315 50 -5 13 -49 13 -54 0 -7 -22
-411 -66 -678 -74 -74 -2 -146 -6 -160 -8 l-25 -3 1 125 c1 306 2 1138 1 1170
-2 26 2 34 13 33 8 -1 87 -24 175 -51 88 -27 262 -80 387 -117 l228 -68 67 26
c95 36 267 83 403 109 98 19 148 22 345 22 203 1 241 -2 324 -22 52 -12 112
-31 133 -42 21 -11 42 -20 46 -20 12 0 126 76 138 91 13 16 25 124 16 134 -4
4 -12 23 -17 43 -8 26 -17 38 -35 42 -21 5 -25 12 -27 45 0 22 1 30 4 18 2
-13 9 -23 15 -23 5 0 7 7 4 16 -3 9 -6 21 -6 28 0 9 -20 13 -62 15 -34 1 -73
8 -87 16 -30 15 -101 81 -116 107 -8 14 -30 18 -120 22 -97 4 -112 8 -124 26
-17 26 -58 26 -108 1 -51 -26 -244 -39 -309 -21 -24 7 -43 14 -41 16 3 4 131
24 177 29 14 1 28 3 33 4 4 0 4 30 1 66 -5 51 -3 70 10 90 21 32 20 46 -4 92
-20 39 -48 218 -38 244 4 11 34 19 96 27 98 13 117 10 135 -22 11 -20 12 -19
17 14 l5 35 55 -3 c36 -2 71 2 98 14 53 20 92 8 92 -29 0 -13 4 -27 9 -32 5
-6 13 -37 18 -69 9 -63 33 -91 33 -37 0 37 -26 164 -39 188 -14 27 -35 106
-33 123 7 47 14 61 29 58 16 -3 24 12 39 70 2 6 14 12 28 12 57 0 108 40 76
60 -8 5 -16 28 -19 52 l-6 43 -46 3 c-35 2 -55 -3 -82 -20 -34 -22 -36 -26
-37 -79 0 -42 4 -58 15 -63 17 -6 20 -52 4 -61 -15 -10 -21 0 -28 42 -4 26
-14 41 -30 49 -15 8 -30 29 -39 56 -7 24 -21 50 -29 58 -9 9 -13 10 -9 2 4 -7
2 -19 -4 -27 -10 -12 -9 -15 4 -15 13 0 15 -6 10 -27 -9 -39 -12 -40 -20 -7
-4 16 -17 43 -30 61 -19 25 -22 37 -15 56 6 14 15 28 20 32 6 3 11 15 11 25 0
31 22 35 42 9 32 -43 39 -49 49 -49 6 0 2 15 -9 33 -49 80 -63 104 -73 128
-11 28 -44 44 -149 72 -96 26 -331 70 -430 82 -25 3 -112 14 -195 25 -295 38
-413 49 -620 57 -245 9 -225 10 -339 -5 -106 -14 -148 -39 -163 -100 -11 -41
-1 -82 19 -82 7 0 29 10 48 22 37 23 163 47 243 48 100 0 162 -27 249 -109 30
-27 41 -32 50 -23 14 14 80 16 93 3 6 -5 33 -12 60 -15 28 -4 70 -10 95 -16
25 -5 80 -9 123 -10 59 0 79 -4 83 -15 5 -12 24 -15 85 -15 91 0 105 -12 94
-80 -4 -22 -3 -45 1 -52 5 -7 9 -45 10 -84 2 -48 8 -81 21 -105 11 -19 27 -57
36 -85 15 -47 15 -58 1 -134 -9 -45 -14 -91 -11 -101 3 -10 1 -19 -4 -21 -5
-2 -14 -29 -19 -62 -14 -85 -19 -95 -48 -102 -55 -12 -56 -13 -28 -39 31 -28
36 -84 9 -110 -14 -15 -15 -23 -3 -68 18 -71 31 -99 46 -93 9 3 10 -4 2 -30
-17 -65 -11 -69 114 -72 62 -1 122 -5 132 -8 36 -12 -7 -23 -90 -24 -43 -1
-110 -9 -149 -17 -60 -12 -198 -30 -285 -35 -14 -1 -119 4 -234 11 -214 13
-278 26 -291 59 -14 35 -16 95 -4 102 8 6 4 23 -15 65 -15 31 -25 63 -22 70 3
8 -1 19 -9 25 -11 9 -11 18 -4 38 7 19 6 46 -5 97 -8 38 -17 89 -20 113 -7 45
-48 178 -66 212 -6 12 -15 42 -20 68 -20 114 -42 210 -59 262 -59 174 -56 162
-36 176 10 8 16 17 12 20 -4 4 -12 3 -19 -3 -7 -5 -46 -17 -85 -27 -93 -23
-101 -18 -105 72 -3 61 -5 67 -25 70 -15 2 -25 12 -29 30 -10 43 -70 145 -116
198 -24 27 -52 67 -63 88 -36 70 -111 83 -250 41z m387 -405 c-5 -50 -15 -55
-54 -29 -18 13 -35 25 -37 26 -9 6 22 32 42 36 44 9 52 3 49 -33z m1713 -86
c32 -3 67 -10 77 -15 10 -5 29 -7 43 -3 19 5 31 -1 55 -24 16 -17 30 -39 30
-49 0 -11 11 -30 24 -42 28 -27 24 -51 -9 -51 -22 0 -35 -22 -35 -62 0 -20 30
-24 46 -8 15 15 64 -8 64 -30 0 -23 -21 -46 -50 -54 -33 -10 -243 -37 -300
-39 -41 -2 -45 0 -45 22 0 22 8 26 100 47 153 35 159 38 169 67 16 45 2 49
-123 36 -106 -12 -112 -11 -126 7 -8 10 -12 25 -10 32 2 6 0 12 -5 12 -6 0
-10 17 -10 38 0 20 -5 55 -10 76 -11 49 -5 60 29 51 14 -3 53 -9 86 -11z
m-1730 -60 c-16 -12 -51 -8 -61 7 -3 5 4 9 15 9 11 0 23 5 26 10 5 8 12 7 22
-1 13 -12 13 -14 -2 -25z m2063 -171 c-2 -9 -8 -18 -15 -20 -9 -3 -11 11 -4
35 1 1 6 2 12 2 6 0 9 -8 7 -17z m36 -162 c3 -9 15 -29 28 -44 35 -43 17 -62
-63 -62 -39 -1 -77 -8 -98 -18 -19 -9 -50 -17 -70 -17 -19 0 -72 -5 -118 -12
-93 -13 -100 -11 -112 44 -13 57 0 73 73 92 36 9 82 16 103 17 21 0 46 4 56 8
11 4 59 7 107 8 73 0 89 -3 94 -16z m-2344 -121 c0 -11 -4 -20 -10 -20 -5 0
-10 9 -10 20 0 11 5 20 10 20 6 0 10 -9 10 -20z m1850 -80 c0 -38 -4 -72 -10
-75 -5 -3 -10 -3 -10 2 -1 4 -3 34 -7 65 -6 61 1 93 17 83 5 -3 10 -37 10 -75z
m-1953 -285 c5 -242 3 -287 -8 -283 -11 4 -14 56 -17 279 -2 257 0 310 14 296
3 -3 8 -135 11 -292z m103 256 c0 -17 -4 -33 -10 -36 -6 -4 -10 8 -10 29 0 20
5 36 10 36 6 0 10 -13 10 -29z m1740 0 c16 -31 2 -54 -29 -46 -40 10 -47 22
-26 45 23 25 41 26 55 1z m-1743 -118 c-3 -10 -5 -2 -5 17 0 19 2 27 5 18 2
-10 2 -26 0 -35z m21 -165 c2 -51 5 -94 7 -97 2 -2 51 -3 109 -2 143 3 173 -4
193 -43 9 -17 20 -68 24 -114 5 -46 13 -91 19 -102 13 -25 13 -93 -1 -107 -17
-17 -327 114 -358 151 -9 10 -12 69 -12 213 0 238 0 221 9 206 4 -6 9 -54 10
-105z m1847 37 c4 -39 7 -78 6 -88 0 -10 9 -23 19 -29 14 -9 16 -16 9 -30 -5
-9 -8 -23 -7 -30 2 -8 -9 -14 -27 -16 -29 -4 -29 -3 -12 16 16 17 16 20 2 32
-9 7 -15 27 -14 49 0 20 0 57 -1 83 -2 44 7 94 16 86 2 -2 6 -35 9 -73z m542
-337 c15 -7 30 -15 33 -18 3 -3 17 -13 33 -23 30 -19 36 -47 11 -47 -31 0 -99
23 -119 41 -11 9 -28 19 -38 21 -42 8 -20 26 45 37 4 0 20 -5 35 -11z m-5432
-1048 c20 -38 20 -110 1 -110 -24 0 -46 41 -46 86 0 62 20 73 45 24z m2395
-125 c11 -10 22 -26 25 -36 4 -11 18 -19 38 -21 40 -4 44 -24 13 -62 l-24 -29
-27 54 c-25 48 -77 109 -94 109 -3 0 -13 -5 -21 -10 -13 -9 -12 -13 6 -28 76
-61 92 -229 31 -306 -20 -24 -28 -27 -54 -22 -55 12 -103 107 -103 203 0 45 6
62 35 105 19 29 47 57 62 63 33 14 86 4 113 -20z"/>
<path d="M9426 792 c-7 -11 6 -27 27 -35 9 -3 17 -13 17 -22 0 -15 25 -21 34
-7 5 9 -50 72 -63 72 -6 0 -12 -4 -15 -8z"/>
<path d="M9406 693 c-7 -24 17 -93 39 -109 42 -31 48 4 15 94 -13 35 -45 44
-54 15z"/>
<path d="M4670 3683 c-14 -10 -32 -16 -41 -15 -9 2 -22 -4 -29 -13 -25 -30 16
-27 64 5 25 17 46 33 46 36 0 9 -16 3 -40 -13z"/>
<path d="M11515 3610 c3 -5 13 -10 21 -10 8 0 12 5 9 10 -3 6 -13 10 -21 10
-8 0 -12 -4 -9 -10z"/>
<path d="M9453 3603 c-7 -2 -13 -13 -13 -24 0 -23 32 -26 50 -4 20 25 -3 42
-37 28z"/>
<path d="M11680 3590 c0 -5 7 -10 15 -10 8 0 15 5 15 10 0 6 -7 10 -15 10 -8
0 -15 -4 -15 -10z"/>
<path d="M11840 3570 c0 -5 9 -10 21 -10 11 0 17 5 14 10 -3 6 -13 10 -21 10
-8 0 -14 -4 -14 -10z"/>
<path d="M3120 3334 c-70 -7 -332 -54 -349 -63 -9 -5 -33 -11 -53 -15 -71 -13
-40 -36 47 -36 77 0 89 -20 40 -65 -50 -48 -82 -63 -163 -77 -62 -10 -73 -10
-96 5 -26 18 -36 60 -16 72 17 10 11 25 -9 25 -39 0 -289 -130 -409 -212 -70
-48 -148 -133 -210 -228 -30 -47 -67 -98 -82 -115 -14 -16 -46 -75 -70 -130
-23 -55 -49 -104 -56 -108 -8 -4 -14 -16 -14 -25 0 -20 -34 -112 -58 -156 -31
-59 -43 -101 -46 -166 -2 -50 -8 -73 -27 -101 -14 -20 -31 -63 -38 -95 -7 -32
-20 -79 -27 -104 -8 -25 -19 -90 -24 -145 -6 -55 -13 -128 -16 -162 -11 -108
17 -141 124 -146 66 -3 71 5 74 103 3 116 -1 151 -23 199 -11 24 -18 53 -15
65 3 11 0 26 -5 32 -6 7 -9 20 -7 29 3 15 49 17 508 20 330 1 532 6 583 14 44
7 82 10 85 7 3 -4 -6 -19 -20 -34 -14 -15 -24 -32 -21 -38 2 -7 -33 -52 -79
-102 -72 -77 -86 -99 -105 -159 -31 -94 -39 -158 -23 -168 19 -12 199 -14 243
-3 22 5 61 30 96 61 49 43 82 61 203 109 180 71 307 94 568 103 102 3 241 8
310 10 69 3 422 10 785 16 363 6 663 13 667 15 4 3 19 2 33 -2 20 -5 25 -12
25 -35 0 -28 -82 -234 -101 -253 -5 -6 -9 -20 -9 -33 0 -31 -27 -30 -42 2 -15
34 -43 39 -130 24 -40 -7 -80 -13 -88 -14 -8 -2 -35 -7 -60 -14 -57 -13 -138
-29 -215 -42 -33 -5 -73 -14 -90 -19 -35 -11 -76 -13 -125 -4 -59 10 -229 -23
-266 -51 -18 -14 -42 -25 -53 -25 -16 0 -21 -6 -21 -25 0 -27 -9 -32 -28 -13
-9 9 -20 9 -47 -1 -25 -9 -40 -9 -54 -2 -11 6 -26 11 -33 10 -7 0 -4 -4 6 -8
18 -7 17 -9 -12 -27 -19 -10 -35 -30 -38 -44 -3 -14 -8 -32 -10 -41 -2 -8 2
-23 9 -34 13 -16 19 -17 62 -6 26 6 50 10 52 7 3 -3 -21 -35 -53 -71 -46 -51
-64 -64 -81 -60 -12 3 -34 0 -50 -6 -15 -6 -44 -13 -63 -16 -19 -2 -44 -12
-55 -22 -27 -24 -93 -61 -109 -61 -7 0 -23 -11 -35 -24 -12 -13 -47 -31 -77
-41 -30 -9 -81 -30 -114 -46 -60 -29 -230 -82 -238 -74 -2 2 -10 -2 -17 -9
-19 -18 -113 -35 -217 -38 -80 -3 -89 -1 -108 20 -31 33 -66 45 -90 29 -11 -6
-20 -18 -20 -26 0 -9 -7 -11 -22 -7 -13 3 -37 6 -55 6 -17 0 -38 6 -45 13 -7
8 -18 12 -25 10 -21 -7 -72 49 -92 101 -19 52 -61 271 -61 321 0 17 -12 39
-34 61 -30 30 -40 34 -88 34 -30 0 -58 3 -62 7 -4 4 -80 6 -169 5 -89 -2 -205
2 -257 8 -228 26 -224 26 -244 -4 -15 -24 -16 -34 -6 -81 6 -30 15 -57 20 -60
4 -3 11 -22 15 -42 4 -21 11 -44 17 -51 6 -6 7 -12 2 -12 -5 -1 2 -7 16 -15
22 -13 12 -14 -95 -8 -193 10 -180 11 -183 -15 -3 -18 5 -26 38 -41 24 -11 37
-22 31 -25 -6 -4 -11 -20 -11 -37 0 -22 -5 -29 -20 -29 -11 0 -20 -7 -20 -15
0 -11 -11 -14 -47 -11 -27 2 -57 7 -67 11 -13 6 -23 3 -31 -9 -11 -14 -9 -26
6 -69 10 -28 19 -53 19 -54 0 -2 6 -3 13 -3 6 0 26 -14 44 -30 18 -17 41 -30
53 -30 30 0 70 29 70 51 0 33 20 31 40 -4 20 -33 57 -53 90 -48 8 1 28 16 43
34 34 37 35 91 4 148 -27 50 -94 78 -113 48 -9 -15 -24 9 -24 39 0 23 1 23 73
16 94 -9 123 -18 118 -35 -2 -8 -5 -74 -6 -147 -1 -83 -6 -137 -14 -145 -6 -6
-33 -11 -61 -12 -27 -1 -53 -4 -56 -8 -10 -9 -54 32 -54 50 0 15 -31 18 -45 4
-6 -5 -19 -11 -29 -13 -17 -3 -20 -13 -22 -86 -2 -45 1 -93 6 -105 10 -24 11
-19 14 55 1 26 4 49 7 52 12 12 39 8 82 -13 42 -20 52 -22 73 -11 19 11 36 10
94 -2 39 -9 80 -13 92 -11 15 5 19 2 17 -12 -3 -14 -32 -27 -109 -52 -57 -18
-112 -31 -121 -28 -9 3 -23 0 -30 -8 -8 -7 -50 -23 -94 -36 -44 -12 -96 -28
-115 -36 -19 -7 -81 -26 -137 -42 -57 -15 -103 -31 -103 -35 0 -5 205 -8 455
-8 250 0 455 4 455 8 0 11 128 44 140 37 15 -9 12 -25 -5 -25 -8 0 -15 -4 -15
-10 0 -15 37 -12 43 4 8 21 360 21 381 1 12 -12 57 -15 245 -15 134 0 239 4
249 10 33 19 140 50 213 61 41 7 78 16 83 20 6 5 19 9 31 9 11 0 37 8 56 18
40 20 124 51 214 77 33 10 65 21 70 25 6 4 24 11 42 15 18 3 42 15 55 24 24
19 108 51 134 51 8 0 25 10 37 23 32 31 67 53 102 61 16 4 32 12 36 17 3 5 22
10 41 11 26 1 38 6 41 19 3 10 18 21 33 24 91 19 157 42 165 57 5 9 23 19 41
23 18 4 40 13 48 21 8 7 51 20 95 29 51 11 89 25 108 41 16 13 36 24 44 24 9
0 30 11 47 23 17 13 58 32 91 42 59 18 105 39 135 61 17 13 224 94 240 94 5 0
39 14 73 30 35 17 68 30 73 30 5 0 25 10 44 23 19 12 62 33 95 46 33 14 92 39
130 56 191 88 254 115 300 130 28 9 64 25 80 35 49 29 171 66 303 91 138 26
136 24 130 120 l-3 54 -90 3 c-57 2 -94 7 -100 15 -14 18 -62 20 -69 2 -3 -8
-12 -15 -20 -15 -8 0 -16 -6 -19 -12 -2 -7 -4 8 -3 34 1 25 3 48 6 51 3 3 67
7 144 10 102 3 140 8 147 18 14 22 11 193 -3 212 -8 10 -38 20 -83 26 -122 17
-177 30 -194 44 -22 20 -93 54 -171 81 -36 13 -91 33 -122 45 -32 11 -66 21
-77 21 -10 0 -24 7 -31 15 -7 8 -20 15 -29 15 -9 0 -34 7 -56 14 -25 9 -44 11
-49 5 -15 -14 -29 -11 -22 6 3 9 0 15 -9 15 -8 0 -15 -4 -15 -10 0 -16 -14
-12 -39 12 -20 18 -27 19 -43 9 -23 -15 -33 -9 -24 15 3 9 13 14 21 10 8 -3
17 -1 20 4 4 6 -2 10 -13 10 -10 0 -27 9 -37 20 -10 11 -26 20 -36 20 -10 0
-21 5 -24 10 -3 6 -17 10 -29 10 -13 0 -29 7 -36 15 -14 17 -40 20 -40 5 0 -5
5 -10 10 -10 16 0 12 -20 -6 -27 -18 -7 -65 34 -58 51 4 11 -82 76 -100 76 -4
0 -70 31 -148 70 -78 38 -151 73 -162 76 -12 3 -48 18 -81 33 -33 15 -87 38
-120 51 -33 13 -67 30 -76 37 -8 7 -23 13 -32 13 -10 0 -25 4 -35 9 -144 78
-316 123 -460 122 -177 -2 -363 -63 -497 -166 -22 -16 -42 -33 -45 -36 -3 -3
-52 -43 -110 -90 -57 -46 -180 -160 -272 -253 l-168 -169 0 63 c0 64 10 115
66 337 71 278 177 534 279 678 50 70 145 161 184 176 37 15 14 28 -75 44 -84
16 -289 26 -364 19z m-320 -514 c0 -25 -34 -60 -57 -60 -13 0 -36 -6 -52 -14
-15 -8 -52 -17 -82 -19 -30 -3 -68 -8 -86 -12 -21 -5 -42 -2 -64 9 -42 21 -55
20 -72 -5 l-15 -21 -7 21 c-6 20 -6 20 -25 1 -27 -27 -97 -47 -112 -32 -9 9
-8 18 2 37 16 31 53 41 180 50 52 3 114 10 136 15 23 5 76 11 118 13 42 2 82
9 89 16 14 14 47 15 47 1z m2686 -639 c-3 -5 3 -11 14 -14 28 -7 25 -27 -5
-27 -20 0 -25 -5 -25 -27 0 -39 -18 -15 -20 27 -3 49 -2 50 21 50 11 0 18 -4
15 -9z m-201 -52 c11 -17 0 -20 -21 -4 -17 13 -17 14 -2 15 9 0 20 -5 23 -11z
m-2353 -426 c15 -14 19 -27 15 -58 -5 -43 -34 -132 -50 -152 -14 -18 -37 -16
-44 5 -4 9 -12 20 -19 25 -7 4 -11 14 -8 21 3 7 -5 26 -18 40 -19 22 -22 36
-20 76 3 42 7 50 30 59 36 14 90 6 114 -16z m-1368 -9 c11 -30 6 -91 -9 -104
-37 -31 -78 73 -43 108 17 17 45 15 52 -4z m4592 -125 c4 -6 -6 -35 -22 -65
-28 -52 -29 -52 -94 -64 -36 -6 -85 -14 -110 -17 -25 -3 -50 -9 -56 -14 -6 -5
-40 -12 -75 -16 -78 -7 -136 -27 -166 -55 -35 -33 -36 -17 -3 51 28 55 34 81
39 158 1 22 4 23 154 25 83 2 191 4 239 6 58 2 89 -1 94 -9z m-4576 -99 c15
-8 19 -21 18 -60 -2 -55 -23 -76 -38 -36 -5 13 -14 27 -19 31 -15 8 -14 48 1
63 15 15 15 15 38 2z m1265 -30 c8 -24 -1 -41 -18 -34 -15 5 -41 -38 -42 -69
0 -32 -43 -34 -78 -3 -16 14 -33 26 -38 28 -6 2 -4 20 4 43 l14 40 61 -3 c35
-2 63 1 67 7 10 17 23 13 30 -9z m1185 -750 c0 -30 -11 -50 -29 -50 -9 0 -54
-16 -101 -35 -56 -23 -102 -35 -133 -35 -53 0 -56 15 -4 25 130 27 209 60 231
96 18 31 36 31 36 -1z m-2450 -84 c0 -18 -27 -39 -40 -31 -16 10 -12 33 8 38
29 8 32 7 32 -7z"/>
<path d="M11522 3228 c-13 -13 2 -38 24 -38 20 0 27 19 14 35 -15 18 -22 19
-38 3z"/>
<path d="M10872 3216 c7 -8 15 -12 17 -11 5 6 -10 25 -20 25 -5 0 -4 -6 3 -14z"/>
<path d="M11240 3086 c0 -35 14 -106 20 -106 12 0 18 93 7 108 -13 16 -27 15
-27 -2z"/>
<path d="M13047 3075 c-24 -24 -21 -38 6 -31 33 8 91 -10 126 -39 30 -26 65
-33 76 -15 10 17 -14 39 -70 65 -76 34 -118 40 -138 20z"/>
<path d="M12890 3020 c-8 -5 -10 -10 -5 -10 6 0 17 5 25 10 8 5 11 10 5 10 -5
0 -17 -5 -25 -10z"/>
<path d="M11260 2937 c0 -8 7 -21 16 -28 14 -11 15 -10 12 11 -3 26 -28 41
-28 17z"/>
<path d="M11283 2745 c0 -27 2 -38 4 -22 2 15 2 37 0 50 -2 12 -4 0 -4 -28z"/>
<path d="M12755 2540 c3 -5 8 -10 11 -10 2 0 4 5 4 10 0 6 -5 10 -11 10 -5 0
-7 -4 -4 -10z"/>
<path d="M11631 2456 c14 -30 59 -42 59 -15 0 20 -4 24 -42 33 -26 6 -27 5
-17 -18z"/>
<path d="M12391 2454 c0 -11 3 -14 6 -6 3 7 2 16 -1 19 -3 4 -6 -2 -5 -13z"/>
<path d="M5280 2449 c0 -5 5 -7 10 -4 6 3 10 8 10 11 0 2 -4 4 -10 4 -5 0 -10
-5 -10 -11z"/>
<path d="M12680 2431 c0 -17 5 -33 10 -36 6 -3 10 -17 10 -31 0 -13 5 -24 10
-24 6 0 10 11 10 25 0 14 -5 25 -11 25 -5 0 -9 8 -8 18 3 33 -1 52 -11 52 -5
0 -10 -13 -10 -29z"/>
<path d="M5360 2411 c0 -13 37 -24 50 -16 6 4 8 11 5 16 -8 12 -55 12 -55 0z"/>
<path d="M12421 2324 c0 -11 3 -14 6 -6 3 7 2 16 -1 19 -3 4 -6 -2 -5 -13z"/>
<path d="M12722 2300 c0 -14 2 -19 5 -12 2 6 2 18 0 25 -3 6 -5 1 -5 -13z"/>
<path d="M12441 2244 c0 -11 3 -14 6 -6 3 7 2 16 -1 19 -3 4 -6 -2 -5 -13z"/>
<path d="M12457 2143 c-15 -14 -6 -40 13 -38 28 2 35 12 20 30 -14 16 -23 19
-33 8z"/>
<path d="M11338 2118 c6 -26 39 -58 59 -58 20 0 16 15 -13 49 -31 37 -55 41
-46 9z"/>
<path d="M12525 2122 c-13 -13 12 -22 62 -22 39 0 62 -5 75 -17 17 -15 20 -15
28 -3 6 8 10 22 10 31 0 14 -13 16 -85 16 -47 0 -87 -3 -90 -5z"/>
<path d="M7776 1995 c-8 -30 2 -75 21 -93 7 -7 13 -20 13 -28 0 -8 5 -14 11
-14 7 0 9 10 4 28 -18 69 -22 93 -24 120 -2 21 -19 13 -25 -13z"/>
<path d="M11365 2011 c-8 -15 3 -31 21 -31 9 0 14 7 12 17 -4 20 -24 28 -33
14z"/>
<path d="M11702 2008 c-16 -16 -15 -38 2 -38 7 0 29 6 47 14 l34 14 -28 11
c-36 14 -40 14 -55 -1z"/>
<path d="M7735 1970 c3 -5 10 -10 16 -10 5 0 9 5 9 10 0 6 -7 10 -16 10 -8 0
-12 -4 -9 -10z"/>
<path d="M7171 1956 c-7 -8 -22 -17 -34 -19 -12 -2 -2 -5 23 -5 32 -1 41 1 30
8 -22 14 -7 12 26 -4 16 -7 54 -16 85 -20 45 -5 58 -3 63 9 4 11 -2 15 -22 15
-16 0 -32 4 -37 9 -6 5 -35 12 -66 15 -43 6 -58 4 -68 -8z"/>
<path d="M7050 1911 c-69 -24 -78 -32 -144 -131 -13 -19 -27 -46 -31 -60 -7
-23 -6 -24 9 -11 10 8 24 27 32 43 10 19 22 28 39 28 16 0 25 6 25 15 0 26 30
75 45 75 8 0 15 4 15 10 0 5 18 13 40 16 22 4 40 10 40 14 0 16 -27 17 -70 1z"/>
<path d="M7380 1910 c0 -5 9 -10 21 -10 11 0 17 5 14 10 -3 6 -13 10 -21 10
-8 0 -14 -4 -14 -10z"/>
<path d="M7440 1881 c0 -5 8 -11 18 -15 9 -3 24 -9 32 -12 8 -4 4 3 -9 15 -25
22 -41 27 -41 12z"/>
<path d="M7847 1850 c4 -17 43 -36 43 -22 0 13 -15 28 -31 34 -13 5 -16 2 -12
-12z"/>
<path d="M7060 1845 c0 -8 5 -15 10 -15 6 0 10 7 10 15 0 8 -4 15 -10 15 -5 0
-10 -7 -10 -15z"/>
<path d="M7770 1842 c0 -4 6 -14 13 -21 10 -10 8 -16 -10 -28 -13 -9 -23 -21
-23 -29 0 -7 -10 -19 -22 -25 -27 -14 -48 -41 -42 -51 3 -5 28 15 57 43 28 28
59 55 69 60 17 9 17 11 2 34 -15 24 -44 34 -44 17z"/>
<path d="M7420 1834 c0 -3 7 -12 15 -20 16 -17 18 -14 9 10 -6 15 -24 23 -24
10z"/>
<path d="M7707 1810 c-36 -31 -74 -39 -95 -18 -9 9 -12 8 -12 -4 0 -12 12 -17
44 -19 24 -2 42 -1 39 4 -2 4 4 7 15 7 10 0 28 10 40 23 43 46 19 51 -31 7z"/>
<path d="M7016 1801 c-16 -17 -16 -19 4 -24 16 -4 20 0 20 19 0 29 -2 29 -24
5z"/>
<path d="M7845 1790 c-7 -11 52 -50 77 -50 25 0 31 16 12 34 -17 18 -39 22
-29 6 3 -5 0 -10 -8 -10 -8 0 -17 7 -21 15 -6 17 -22 20 -31 5z"/>
<path d="M7558 1783 c7 -3 16 -2 19 1 4 3 -2 6 -13 5 -11 0 -14 -3 -6 -6z"/>
<path d="M8400 1700 c-13 -9 -13 -10 0 -9 8 0 24 4 35 9 l20 9 -20 0 c-11 0
-27 -4 -35 -9z"/>
<path d="M8685 1700 c27 -12 43 -12 25 0 -8 5 -22 9 -30 9 -10 0 -8 -3 5 -9z"/>
<path d="M7040 1686 c0 -9 5 -16 10 -16 6 0 10 4 10 9 0 6 -4 13 -10 16 -5 3
-10 -1 -10 -9z"/>
<path d="M1922 1668 c-7 -7 -12 -22 -12 -35 0 -19 6 -23 33 -24 29 -1 229 2
287 4 14 1 35 -2 48 -7 19 -6 24 -3 36 26 17 38 7 55 -22 39 -12 -6 -64 -11
-119 -10 -54 1 -121 -1 -150 -4 -38 -4 -55 -2 -64 9 -14 17 -21 18 -37 2z"/>
<path d="M6837 1657 c-9 -15 -17 -31 -17 -37 0 -6 -11 -22 -25 -36 -14 -14
-25 -31 -25 -39 0 -15 -39 -56 -81 -87 -23 -16 -23 -17 -3 -18 20 0 76 50 98
88 64 113 76 137 73 145 -2 6 -11 -2 -20 -16z"/>
<path d="M7286 1651 c-4 -5 3 -7 14 -4 23 6 26 13 6 13 -8 0 -17 -4 -20 -9z"/>
<path d="M7610 1650 c0 -5 6 -10 14 -10 8 0 18 5 21 10 3 6 -3 10 -14 10 -12
0 -21 -4 -21 -10z"/>
<path d="M7359 1621 c19 -26 27 -29 93 -33 40 -3 81 -8 91 -12 13 -6 17 -3 17
12 0 16 -9 21 -50 26 -27 3 -72 9 -100 12 -27 4 -50 10 -50 15 0 5 -5 9 -11 9
-6 0 -1 -13 10 -29z"/>
<path d="M7240 1609 c0 -7 -22 -9 -63 -6 -68 5 -97 -7 -97 -39 0 -20 17 -52
22 -44 2 3 8 14 14 25 16 29 44 32 44 5 0 -12 -4 -19 -9 -15 -15 8 -25 -15
-12 -28 8 -8 18 -4 39 16 15 16 21 27 13 25 -7 -2 -16 3 -18 10 -5 14 19 16
33 2 6 -6 21 -2 42 12 26 16 30 23 21 34 -14 17 -29 18 -29 3z"/>
<path d="M1883 1549 c4 -13 7 -27 7 -30 0 -10 57 -20 121 -23 60 -3 79 -10 79
-30 0 -8 11 -21 25 -30 21 -14 39 -16 100 -10 41 4 75 10 75 13 0 3 -36 5 -80
5 -76 -2 -79 -1 -76 20 2 18 12 22 65 28 91 10 101 15 101 49 l0 29 -34 -17
c-30 -14 -52 -15 -183 -5 -81 6 -161 14 -177 18 -27 6 -29 5 -23 -17z"/>
<path d="M7540 1508 c0 -25 3 -29 10 -18 13 20 13 50 0 50 -5 0 -10 -15 -10
-32z"/>
<path d="M12300 1531 c0 -5 7 -12 16 -15 24 -9 28 -7 14 9 -14 17 -30 20 -30
6z"/>
<path d="M10253 1514 c-16 -7 -17 -78 -3 -105 8 -15 22 -19 61 -19 43 0 51 3
61 25 8 17 8 37 2 63 -9 36 -10 37 -59 39 -27 1 -56 0 -62 -3z"/>
<path d="M7110 1501 c0 -5 5 -13 10 -16 6 -3 10 -2 10 4 0 5 -4 13 -10 16 -5
3 -10 2 -10 -4z"/>
<path d="M9661 1491 c-19 -12 -4 -31 25 -31 27 0 33 24 8 34 -19 7 -16 8 -33
-3z"/>
<path d="M7063 1462 c-4 -9 -20 -30 -36 -46 -20 -20 -25 -32 -18 -39 8 -8 15
-7 23 1 7 7 8 12 3 12 -4 0 8 16 28 35 42 41 42 41 22 49 -10 3 -18 -1 -22
-12z"/>
<path d="M2020 1444 c0 -8 5 -12 10 -9 6 3 10 10 10 16 0 5 -4 9 -10 9 -5 0
-10 -7 -10 -16z"/>
<path d="M6610 1440 c0 -5 12 -10 26 -10 14 0 23 4 19 10 -3 6 -15 10 -26 10
-10 0 -19 -4 -19 -10z"/>
<path d="M1908 1433 c7 -3 16 -2 19 1 4 3 -2 6 -13 5 -11 0 -14 -3 -6 -6z"/>
<path d="M7820 1394 c-236 -36 -372 -79 -309 -99 12 -4 24 -3 28 3 3 5 22 13
41 17 19 4 42 13 50 20 14 13 243 45 320 45 26 0 31 3 20 10 -14 9 -98 11
-150 4z"/>
<path d="M8071 1370 c7 -5 34 -12 59 -16 25 -4 62 -13 84 -20 21 -8 44 -14 50
-14 21 0 -19 20 -69 34 -64 18 -144 28 -124 16z"/>
<path d="M6973 1354 c-3 -9 -15 -19 -27 -24 -20 -8 -20 -8 -2 -16 13 -5 24 -1
37 17 10 13 19 27 19 32 0 14 -21 7 -27 -9z"/>
<path d="M10023 1245 c0 -33 2 -45 4 -27 2 18 2 45 0 60 -2 15 -4 0 -4 -33z"/>
<path d="M4141 1257 c0 -10 -14 -32 -31 -49 -16 -16 -30 -31 -30 -34 0 -8 115
-4 129 5 21 13 -3 41 -35 41 -17 0 -24 7 -27 28 -2 15 -5 19 -6 9z"/>
<path d="M6970 1256 c0 -8 5 -18 10 -21 6 -3 10 1 10 9 0 8 -4 18 -10 21 -5 3
-10 -1 -10 -9z"/>
<path d="M7350 1254 c0 -14 3 -14 15 -4 8 7 15 14 15 16 0 2 -7 4 -15 4 -8 0
-15 -7 -15 -16z"/>
<path d="M10160 1245 c-12 -15 -10 -61 16 -442 7 -102 14 -110 91 -94 119 24
219 86 254 158 52 108 -11 237 -156 318 -45 25 -172 75 -190 75 -2 0 -8 -7
-15 -15z"/>
<path d="M4378 1223 c-24 -6 -23 -23 1 -23 10 0 21 7 25 15 6 15 4 16 -26 8z"/>
<path d="M7462 1218 c-25 -31 9 -83 46 -71 20 7 15 61 -7 73 -25 13 -26 13
-39 -2z"/>
<path d="M7344 1196 c-32 -32 -37 -45 -15 -39 17 4 49 49 40 56 -2 2 -13 -6
-25 -17z"/>
<path d="M7728 1203 c-43 -10 -19 -83 27 -83 22 0 25 4 25 35 0 36 -20 55 -52
48z"/>
<path d="M3652 1179 c-51 -20 -11 -56 64 -58 35 -1 70 30 61 54 -7 17 -86 20
-125 4z"/>
<path d="M7997 1183 c-12 -12 -7 -60 7 -73 8 -6 25 -10 38 -8 45 6 30 88 -16
88 -12 0 -26 -3 -29 -7z"/>
<path d="M3976 1158 c-12 -17 -30 -23 -83 -30 -39 -4 -73 -14 -82 -24 -15 -14
-12 -15 29 -11 25 3 53 7 64 9 22 4 48 -32 29 -39 -16 -6 -17 -55 -2 -70 7 -7
17 -7 35 1 27 12 32 26 9 26 -25 0 -30 47 -7 68 23 20 45 79 32 87 -5 3 -16
-5 -24 -17z"/>
<path d="M10020 1163 c0 -13 5 -23 10 -23 13 0 13 11 0 30 -8 12 -10 11 -10
-7z"/>
<path d="M8346 1154 c-35 -34 -2 -88 51 -82 37 4 44 47 14 77 -25 25 -44 26
-65 5z"/>
<path d="M4220 1120 c0 -5 5 -10 10 -10 6 0 10 5 10 10 0 6 -4 10 -10 10 -5 0
-10 -4 -10 -10z"/>
<path d="M4047 1103 c-11 -21 -16 -63 -7 -63 8 0 40 50 40 65 0 8 -28 6 -33
-2z"/>
<path d="M1728 1063 c6 -2 18 -2 25 0 6 3 1 5 -13 5 -14 0 -19 -2 -12 -5z"/>
<path d="M11360 1021 c0 -11 26 -22 34 -14 12 12 5 23 -14 23 -11 0 -20 -4
-20 -9z"/>
<path d="M4000 1010 c0 -5 4 -10 9 -10 6 0 13 5 16 10 3 6 -1 10 -9 10 -9 0
-16 -4 -16 -10z"/>
<path d="M10780 974 c0 -14 3 -15 18 -3 9 7 19 15 21 16 2 2 -5 3 -17 3 -14 0
-22 -6 -22 -16z"/>
<path d="M4030 850 c0 -5 12 -10 28 -10 21 0 24 2 12 10 -20 13 -40 13 -40 0z"/>
<path d="M9945 789 c-10 -15 1 -23 20 -15 9 3 13 10 10 16 -8 13 -22 13 -30
-1z"/>
<path d="M8640 776 c0 -9 5 -16 10 -16 6 0 10 4 10 9 0 6 -4 13 -10 16 -5 3
-10 -1 -10 -9z"/>
<path d="M1326 731 c-9 -13 3 -39 21 -45 16 -6 33 0 33 12 -1 13 -49 42 -54
33z"/>
<path d="M9020 710 c0 -5 5 -10 10 -10 6 0 10 5 10 10 0 6 -4 10 -10 10 -5 0
-10 -4 -10 -10z"/>
<path d="M10781 704 c0 -11 3 -14 6 -6 3 7 2 16 -1 19 -3 4 -6 -2 -5 -13z"/>
<path d="M915 689 c-33 -4 -118 -13 -190 -19 -117 -9 -191 -16 -550 -50 -55
-5 -117 -9 -137 -10 -37 0 -38 -1 -38 -35 0 -34 1 -35 40 -35 22 0 40 5 40 10
0 6 33 10 79 10 44 0 81 4 83 9 1 4 13 11 24 15 18 6 21 3 17 -18 -5 -25 -34
-36 -94 -36 -16 0 -29 -4 -29 -10 0 -5 13 -10 29 -10 16 0 43 -3 60 -6 27 -6
31 -4 31 15 0 14 6 21 20 21 11 0 20 4 20 8 0 11 143 39 239 48 50 4 72 3 67
-4 -7 -12 80 -29 91 -18 3 3 12 -2 18 -11 11 -15 15 -15 30 -3 16 13 16 15 -2
21 -10 4 -36 8 -58 8 -63 2 -76 18 -19 23 27 3 56 8 65 12 12 5 18 1 22 -15 5
-19 11 -21 38 -15 18 3 41 13 50 22 10 9 36 18 58 21 33 5 41 3 41 -11 0 -25
19 -19 31 11 11 30 9 55 -6 58 -5 1 -37 -1 -70 -6z"/>
<path d="M12221 685 c-47 -7 -129 -16 -183 -20 -84 -6 -99 -10 -96 -24 4 -22
41 -22 218 1 181 22 168 23 176 -9 7 -29 38 -75 45 -68 2 2 2 32 -1 67 l-5 63
-35 2 c-19 1 -73 -5 -119 -12z"/>
<path d="M10761 560 l1 -65 9 55 c4 32 4 59 -2 65 -5 5 -9 -16 -8 -55z"/>
<path d="M11395 570 c3 -5 8 -10 11 -10 2 0 4 5 4 10 0 6 -5 10 -11 10 -5 0
-7 -4 -4 -10z"/>
<path d="M460 514 c0 -3 7 -12 16 -21 17 -17 42 -4 30 16 -7 11 -46 16 -46 5z"/>
<path d="M2745 490 c4 -6 11 -8 16 -5 14 9 11 15 -7 15 -8 0 -12 -5 -9 -10z"/>
<path d="M11733 483 c15 -2 39 -2 55 0 15 2 2 4 -28 4 -30 0 -43 -2 -27 -4z"/>
<path d="M11513 473 c-20 -7 -15 -23 7 -23 11 0 20 4 20 9 0 13 -12 19 -27 14z"/>
<path d="M11385 450 c-28 -7 -27 -8 13 -9 23 0 42 4 42 9 0 11 -11 11 -55 0z"/>
<path d="M1282 433 c-6 -2 -10 -9 -6 -14 7 -12 74 -12 74 1 0 6 -6 10 -14 10
-8 0 -20 2 -28 4 -7 3 -19 2 -26 -1z"/>
<path d="M10975 400 c-17 -7 -15 -9 13 -9 17 -1 32 4 32 9 0 12 -17 12 -45 0z"/>
</g>
</svg>
